<mxfile host="app.diagrams.net" modified="2023-10-13T01:11:11.479Z" agent="Mozilla/5.0 (Windows NT 10.0; Win64; x64) AppleWebKit/537.36 (KHTML, like Gecko) Chrome/117.0.0.0 Safari/537.36 Edg/117.0.2045.60" etag="96CrfK5p5QynH7askOZY" version="22.0.4" type="device">
  <diagram name="Página-1" id="ofBrYyHY6vX1dDvHTTTh">
    <mxGraphModel dx="1042" dy="569" grid="1" gridSize="10" guides="1" tooltips="1" connect="1" arrows="1" fold="1" page="1" pageScale="1" pageWidth="827" pageHeight="1169" math="0" shadow="0">
      <root>
        <mxCell id="0" />
        <mxCell id="1" parent="0" />
        <mxCell id="ehup9AuHFFNwQckDkC1y-7" style="edgeStyle=orthogonalEdgeStyle;rounded=0;orthogonalLoop=1;jettySize=auto;html=1;exitX=0.5;exitY=1;exitDx=0;exitDy=0;" edge="1" parent="1" source="ehup9AuHFFNwQckDkC1y-1" target="ehup9AuHFFNwQckDkC1y-2">
          <mxGeometry relative="1" as="geometry" />
        </mxCell>
        <mxCell id="ehup9AuHFFNwQckDkC1y-1" value="inicio" style="ellipse;whiteSpace=wrap;html=1;" vertex="1" parent="1">
          <mxGeometry x="354" y="20" width="120" height="80" as="geometry" />
        </mxCell>
        <mxCell id="ehup9AuHFFNwQckDkC1y-8" style="edgeStyle=orthogonalEdgeStyle;rounded=0;orthogonalLoop=1;jettySize=auto;html=1;exitX=0.5;exitY=1;exitDx=0;exitDy=0;" edge="1" parent="1" source="ehup9AuHFFNwQckDkC1y-2" target="ehup9AuHFFNwQckDkC1y-3">
          <mxGeometry relative="1" as="geometry" />
        </mxCell>
        <mxCell id="ehup9AuHFFNwQckDkC1y-2" value="iniciar um contador de 1 a 100" style="rounded=0;whiteSpace=wrap;html=1;" vertex="1" parent="1">
          <mxGeometry x="354" y="120" width="120" height="60" as="geometry" />
        </mxCell>
        <mxCell id="ehup9AuHFFNwQckDkC1y-9" style="edgeStyle=orthogonalEdgeStyle;rounded=0;orthogonalLoop=1;jettySize=auto;html=1;exitX=0.5;exitY=1;exitDx=0;exitDy=0;" edge="1" parent="1" source="ehup9AuHFFNwQckDkC1y-3" target="ehup9AuHFFNwQckDkC1y-4">
          <mxGeometry relative="1" as="geometry" />
        </mxCell>
        <mxCell id="ehup9AuHFFNwQckDkC1y-3" value="pular os numeros impares usando o resto da divisão por 2 == 0" style="rounded=0;whiteSpace=wrap;html=1;" vertex="1" parent="1">
          <mxGeometry x="354" y="200" width="120" height="60" as="geometry" />
        </mxCell>
        <mxCell id="ehup9AuHFFNwQckDkC1y-10" style="edgeStyle=orthogonalEdgeStyle;rounded=0;orthogonalLoop=1;jettySize=auto;html=1;exitX=0.5;exitY=1;exitDx=0;exitDy=0;" edge="1" parent="1" source="ehup9AuHFFNwQckDkC1y-4" target="ehup9AuHFFNwQckDkC1y-6">
          <mxGeometry relative="1" as="geometry" />
        </mxCell>
        <mxCell id="ehup9AuHFFNwQckDkC1y-4" value="mostrar os numeros na tela" style="rounded=0;whiteSpace=wrap;html=1;" vertex="1" parent="1">
          <mxGeometry x="354" y="280" width="120" height="60" as="geometry" />
        </mxCell>
        <mxCell id="ehup9AuHFFNwQckDkC1y-6" value="Fim" style="ellipse;whiteSpace=wrap;html=1;" vertex="1" parent="1">
          <mxGeometry x="354" y="360" width="120" height="80" as="geometry" />
        </mxCell>
      </root>
    </mxGraphModel>
  </diagram>
</mxfile>
